<?xml version="1.0" standalone="no"?>
<!DOCTYPE svg PUBLIC "-//W3C//DTD SVG 20010904//EN"
 "http://www.w3.org/TR/2001/REC-SVG-20010904/DTD/svg10.dtd">
<svg version="1.0" xmlns="http://www.w3.org/2000/svg"
 width="543.000000pt" height="457.000000pt" viewBox="0 0 543.000000 457.000000"
 preserveAspectRatio="xMidYMid meet">

<g transform="translate(0.000000,457.000000) scale(0.100000,-0.100000)"
fill="#000000" stroke="none">
<path d="M2600 3384 c-25 -9 -64 -25 -87 -35 -25 -11 -89 -23 -155 -29 -62 -6
-114 -15 -116 -20 -2 -6 -17 -10 -33 -10 -18 0 -33 -7 -41 -20 -7 -11 -18 -20
-25 -20 -7 0 -18 -9 -25 -20 -7 -11 -18 -20 -25 -20 -7 0 -13 -9 -13 -19 0
-11 -9 -22 -19 -26 -11 -3 -22 -12 -25 -20 -3 -8 -12 -15 -21 -15 -8 0 -15 -7
-15 -15 0 -16 -40 -59 -64 -68 -9 -4 -16 -13 -16 -21 0 -7 -7 -16 -15 -20 -8
-3 -15 -12 -15 -21 0 -8 -5 -15 -11 -15 -30 0 9 -199 52 -270 5 -8 12 -21 15
-28 13 -27 90 -102 105 -102 8 0 20 -5 26 -11 7 -7 25 -12 40 -13 26 -1 29 -5
39 -61 6 -33 24 -84 40 -114 16 -29 33 -62 39 -72 5 -11 16 -19 23 -19 7 0 15
-7 18 -15 4 -8 14 -15 24 -15 10 0 20 -4 22 -9 2 -5 30 -19 63 -32 50 -20 63
-30 80 -65 l20 -41 60 34 c56 31 66 33 154 33 76 0 103 -4 138 -21 24 -11 43
-27 43 -36 0 -24 33 -10 50 22 23 44 34 53 74 60 20 4 36 11 36 16 0 5 7 9 15
9 23 0 71 27 100 56 39 39 83 131 98 204 l13 65 47 3 c26 2 47 7 47 13 0 5 6
9 13 9 15 1 79 85 96 128 8 17 17 32 21 32 4 0 10 10 13 23 3 12 12 49 21 82
11 37 15 74 11 97 -7 40 -61 117 -82 117 -7 1 -13 8 -13 16 0 8 -9 19 -20 25
-11 6 -20 17 -20 25 0 8 -7 15 -15 15 -9 0 -18 7 -22 16 -12 32 -133 141 -170
153 -21 7 -82 15 -135 18 -54 3 -98 9 -98 13 0 4 -18 10 -40 14 -22 3 -40 11
-40 16 0 6 -18 10 -39 10 -22 0 -41 5 -43 11 -6 19 -146 21 -198 3z m149 -66
c28 -6 51 -15 51 -20 0 -4 18 -8 40 -8 22 0 40 -4 40 -9 0 -5 17 -12 37 -16
50 -9 93 -41 93 -68 -1 -51 34 -307 42 -307 4 0 8 -10 8 -22 1 -30 34 -126 49
-141 6 -6 11 -17 11 -25 0 -8 10 -28 22 -45 27 -37 34 -113 19 -189 -13 -62
-69 -138 -102 -138 -10 0 -19 -4 -19 -10 0 -5 -18 -13 -40 -16 -22 -4 -40 -10
-40 -13 0 -4 -78 -13 -173 -20 -327 -25 -464 16 -527 157 -24 53 -27 171 -6
210 37 68 66 135 66 153 0 10 4 19 8 19 4 0 14 28 21 63 7 34 16 73 21 87 5
14 11 54 15 90 18 169 20 183 35 191 40 20 125 49 144 49 12 0 27 5 33 11 10
10 59 25 90 28 6 1 34 -4 62 -11z m422 -94 c8 -8 19 -14 22 -14 7 0 23 -16
134 -137 119 -129 113 -119 113 -189 0 -50 -6 -74 -30 -121 -46 -90 -70 -113
-117 -113 -54 0 -73 23 -123 149 -42 103 -53 148 -70 291 -14 110 -15 134 -6
148 9 14 53 6 77 -14z m-859 -44 c-4 -73 -29 -245 -42 -287 -6 -18 -15 -50
-21 -70 -16 -55 -33 -93 -41 -93 -5 0 -8 -6 -8 -12 0 -7 -12 -25 -25 -40 -35
-41 -91 -39 -125 3 -14 17 -31 37 -37 44 -7 8 -13 18 -13 22 0 5 -9 28 -20 51
-13 27 -20 61 -20 101 0 50 3 62 20 71 11 6 20 16 20 21 0 6 16 27 35 48 120
125 166 171 174 171 5 0 14 7 21 16 9 10 26 14 49 12 l36 -3 -3 -55z"/>
<path d="M2472 2870 c-15 -25 -16 -82 0 -98 7 -7 27 -12 46 -12 55 0 77 44 50
103 -11 22 -20 27 -48 27 -24 0 -39 -6 -48 -20z"/>
<path d="M2855 2860 c-30 -58 8 -117 67 -106 45 8 63 51 42 101 -13 32 -18 35
-54 35 -34 0 -42 -4 -55 -30z"/>
<path d="M2622 2635 c-39 -28 -27 -65 36 -116 13 -12 18 -25 15 -42 -5 -26
-66 -97 -83 -97 -15 0 -12 -30 4 -36 8 -3 40 -1 70 6 47 10 61 9 90 -5 41 -20
91 -17 91 5 0 8 -10 19 -22 25 -13 5 -23 15 -23 22 0 7 -6 13 -14 13 -21 0
-58 64 -49 86 4 11 22 33 41 51 41 38 39 74 -5 91 -43 16 -125 14 -151 -3z"/>
<path d="M2401 1864 c0 -11 3 -14 6 -6 3 7 2 16 -1 19 -3 4 -6 -2 -5 -13z"/>
<path d="M2991 1864 c0 -11 3 -14 6 -6 3 7 2 16 -1 19 -3 4 -6 -2 -5 -13z"/>
<path d="M2415 1790 c-8 -13 -1 -24 14 -19 6 3 7 10 2 18 -6 10 -10 10 -16 1z"/>
<path d="M2436 1752 c-4 -6 -13 -9 -21 -5 -10 3 -15 -1 -15 -14 0 -13 7 -19
24 -18 32 0 40 9 28 31 -6 11 -12 13 -16 6z"/>
<path d="M2937 1743 c-3 -5 -2 -15 2 -22 7 -10 10 -10 16 -1 4 6 3 16 -3 22
-5 5 -12 6 -15 1z"/>
<path d="M3520 1729 c0 -5 5 -7 10 -4 6 3 10 8 10 11 0 2 -4 4 -10 4 -5 0 -10
-5 -10 -11z"/>
<path d="M1923 1684 c10 -11 440 -16 472 -5 21 6 -46 10 -224 10 -140 1 -252
-2 -248 -5z"/>
<path d="M2995 1682 c11 -4 124 -5 250 -2 l230 6 -250 1 c-137 1 -241 -1 -230
-5z"/>
<path d="M770 1067 l-25 -13 -3 -241 -2 -240 27 -6 c16 -3 40 -3 54 0 29 5 39
32 39 102 0 20 5 43 10 51 6 10 10 11 10 3 0 -9 17 -13 51 -13 58 0 139 18
139 31 0 5 11 15 25 21 14 6 25 19 25 30 0 10 4 18 9 18 14 0 31 85 25 122 -9
44 -55 118 -74 118 -9 0 -21 5 -27 11 -16 16 -252 21 -283 6z m242 -114 c12
-11 18 -30 18 -59 0 -54 -21 -68 -97 -65 -37 1 -53 -2 -53 -11 0 -9 -3 -8 -10
2 -5 8 -10 45 -10 83 l0 67 67 0 c48 0 72 -5 85 -17z"/>
<path d="M1658 1057 c-25 -10 -28 -16 -28 -59 0 -37 -4 -50 -17 -55 -24 -9
-33 -23 -33 -56 0 -20 7 -30 25 -37 24 -9 25 -13 25 -100 0 -147 35 -200 134
-200 55 1 76 18 76 64 0 35 -1 36 -39 36 -26 0 -41 5 -45 16 -9 22 -7 157 2
171 4 6 23 13 42 15 34 3 35 5 35 43 0 39 -1 40 -37 43 -25 2 -38 8 -38 18 0
8 -4 14 -9 14 -4 0 -6 11 -3 25 5 31 -22 75 -46 74 -9 -1 -29 -6 -44 -12z"/>
<path d="M2186 1056 c-43 -16 -119 -94 -140 -143 -25 -56 -18 -158 13 -201 11
-17 21 -37 21 -46 0 -9 7 -16 15 -16 8 0 15 -4 15 -10 0 -5 16 -16 35 -25 19
-9 39 -23 46 -31 17 -21 205 -20 213 1 3 8 16 19 29 24 29 11 40 44 22 68 -13
17 -16 17 -57 -5 -82 -42 -237 -20 -238 36 0 12 -6 22 -13 22 -13 0 -37 60
-37 91 0 57 56 149 91 149 8 0 23 7 33 15 30 23 90 18 145 -11 34 -19 56 -25
75 -20 52 13 24 67 -53 101 -40 18 -172 19 -215 1z"/>
<path d="M4578 1053 c-14 -3 -18 -15 -18 -53 0 -64 -7 -80 -37 -80 -21 0 -24
-4 -21 -27 2 -19 10 -29 28 -33 25 -6 25 -8 28 -118 2 -96 6 -116 22 -132 11
-11 20 -24 20 -28 0 -16 82 -30 112 -20 24 8 29 15 26 37 -2 19 -9 27 -28 29
-14 2 -35 8 -47 14 -22 11 -23 18 -23 109 0 108 -3 103 70 111 19 2 25 9 25
28 0 19 -6 26 -25 28 -70 8 -70 8 -70 72 0 33 -4 60 -9 60 -5 0 -15 2 -23 4
-7 2 -21 2 -30 -1z"/>
<path d="M1305 933 c-11 -3 -27 -14 -36 -24 -9 -11 -21 -19 -26 -19 -15 0 -51
-81 -54 -120 -4 -64 12 -113 47 -146 19 -18 34 -37 34 -43 0 -6 10 -11 23 -11
13 0 28 -5 34 -11 7 -7 32 -9 64 -6 99 10 115 16 133 54 16 34 16 36 -5 54
-27 23 -35 23 -73 4 -40 -21 -96 -18 -126 6 -39 33 -11 44 106 42 118 -2 138
6 129 50 -12 59 -39 127 -51 127 -6 0 -14 7 -18 15 -3 8 -15 15 -26 15 -11 0
-20 5 -20 10 0 10 -98 12 -135 3z m123 -111 c17 -22 15 -29 -10 -36 -40 -10
-95 -6 -107 8 -9 11 -6 18 14 35 30 23 81 20 103 -7z"/>
<path d="M2622 909 c-46 -23 -72 -54 -92 -111 -11 -30 -11 -47 -1 -92 7 -31
17 -56 22 -56 5 0 9 -7 9 -15 0 -8 10 -20 23 -26 12 -7 27 -19 34 -28 9 -12
30 -16 95 -16 82 0 86 1 116 32 18 17 32 36 32 42 0 6 3 11 8 11 4 0 13 12 20
27 14 32 16 133 2 133 -5 0 -10 5 -10 10 0 18 -43 70 -57 70 -7 0 -13 4 -13 9
0 12 -22 19 -90 25 -44 5 -64 2 -98 -15z m157 -71 c26 -16 41 -51 41 -96 0
-43 -19 -92 -36 -92 -6 0 -17 -7 -24 -15 -23 -28 -73 -18 -118 23 -37 34 -42
44 -42 82 0 46 31 105 60 114 24 7 98 -2 119 -16z"/>
<path d="M3098 918 c-16 -5 -28 -14 -28 -19 0 -14 -20 -11 -36 6 -9 8 -28 15
-44 15 -25 0 -30 -5 -36 -35 -3 -19 -4 -83 -1 -143 4 -59 6 -122 7 -139 0 -32
2 -33 40 -33 l40 0 0 119 c0 112 1 120 25 145 30 33 66 37 112 14 29 -14 38
-63 42 -215 l1 -63 36 0 37 0 -5 143 c-6 148 -11 177 -34 177 -8 0 -14 4 -14
8 0 27 -90 40 -142 20z"/>
<path d="M3505 918 c-11 -6 -22 -14 -25 -18 -3 -3 -13 -9 -22 -13 -13 -5 -18
-1 -18 13 0 17 -7 20 -40 20 l-40 0 0 -175 0 -175 40 0 40 0 0 115 c0 103 2
117 22 140 37 43 138 47 138 5 0 -11 5 -20 10 -20 6 0 10 -47 10 -121 l0 -120
38 3 37 3 3 115 c3 119 -11 200 -35 200 -7 0 -13 4 -13 9 0 25 -109 40 -145
19z"/>
<path d="M3885 920 c-21 -4 -41 -13 -43 -19 -2 -6 -12 -11 -23 -11 -10 0 -19
-5 -19 -12 0 -6 -10 -22 -22 -36 -20 -20 -23 -34 -22 -102 0 -77 1 -79 37
-115 20 -20 37 -41 37 -46 0 -5 11 -9 24 -9 14 0 37 -5 52 -10 38 -15 130 7
150 34 25 36 18 56 -20 56 -19 0 -36 -5 -38 -11 -2 -5 -22 -13 -45 -16 -35 -5
-47 -1 -78 22 -24 19 -35 35 -33 48 3 18 11 20 118 19 63 0 121 5 128 10 15
13 16 69 0 105 -17 40 -65 81 -107 93 -40 11 -39 11 -96 0z m88 -64 c18 -4 27
-13 27 -26 0 -11 5 -20 11 -20 6 0 9 -10 7 -22 -3 -22 -8 -23 -90 -26 -84 -3
-88 -2 -88 18 0 12 5 30 11 41 11 21 65 49 83 44 6 -2 23 -6 39 -9z"/>
<path d="M4236 905 c-3 -8 -12 -15 -20 -15 -25 0 -76 -88 -76 -132 0 -39 20
-108 32 -108 4 0 8 -5 8 -11 0 -6 15 -25 33 -41 30 -29 37 -31 112 -32 71 -1
83 2 108 23 58 52 24 77 -60 45 -41 -16 -46 -16 -82 2 -48 23 -71 63 -71 120
0 69 31 97 108 98 43 1 63 -4 76 -17 21 -21 30 -21 46 -2 17 20 5 48 -29 68
-39 23 -176 24 -185 2z"/>
</g>
</svg>
